<?xml version="1.0" standalone="no"?>
<!DOCTYPE svg PUBLIC "-//W3C//DTD SVG 20010904//EN"
  "http://www.w3.org/TR/2001/REC-SVG-20010904/DTD/svg10.dtd">
<svg version="1.0" xmlns="http://www.w3.org/2000/svg"
     width="295.000000pt" height="295.000000pt" viewBox="0 0 295.000000 295.000000"
     preserveAspectRatio="xMidYMid meet">
  <g transform="translate(0.000000,295.000000) scale(0.100000,-0.100000)"
     fill="#00000" stroke="none">
    <path d="M1140 2429 c-101 -29 -220 -92 -269 -143 l-44 -45 53 -85 c30 -46 68
-101 85 -121 l30 -37 45 18 c51 20 69 39 70 71 l0 22 -46 -19 c-48 -21 -74
-25 -74 -12 0 4 -20 38 -44 76 -25 37 -42 74 -40 81 14 36 209 135 266 135 11
0 42 -20 68 -44 78 -73 140 -99 247 -104 68 -3 104 0 140 12 69 24 147 74 167
107 21 35 44 37 123 8 72 -27 183 -98 183 -118 0 -14 -88 -171 -96 -171 -3 0
-21 7 -41 15 -46 19 -53 19 -53 -4 0 -24 16 -37 67 -55 39 -14 42 -13 61 7 39
44 132 191 132 210 0 46 -140 140 -277 186 -93 31 -105 29 -140 -27 -74 -120
-258 -153 -406 -74 -46 25 -107 92 -107 119 0 17 -21 15 -100 -8z m80 -18 c0
-5 7 -17 16 -25 13 -14 14 -16 0 -16 -8 0 -18 5 -22 11 -4 7 -23 9 -50 5 -51
-7 -58 6 -11 22 42 13 67 14 67 3z m600 -2 c0 -6 9 -8 21 -4 15 5 19 4 15 -4
-4 -6 -16 -11 -26 -11 -10 0 -22 -5 -26 -11 -4 -7 -9 -8 -17 0 -7 7 -6 15 3
26 14 17 30 20 30 4z m-742 -43 c-52 -19 -128 -65 -162 -98 -20 -20 -27 -36
-24 -53 4 -21 3 -23 -13 -14 -11 5 -19 16 -19 24 0 36 181 155 235 154 12 0 5
-5 -17 -13z"/>
    <path d="M1064 1915 c-9 -24 23 -200 47 -256 32 -73 79 -134 140 -180 72 -55
122 -77 205 -88 86 -13 190 6 245 45 134 93 223 260 241 454 l3 35 -438 3
c-385 2 -438 0 -443 -13z m66 -18 c0 -2 -9 -12 -20 -22 -19 -18 -20 -17 -20 3
0 15 6 22 20 22 11 0 20 -2 20 -3z m745 -94 c-17 -93 -38 -144 -85 -211 -72
-103 -163 -154 -275 -156 -199 -2 -365 160 -392 382 l-6 52 385 0 385 0 -12
-67z"/>
    <path d="M2033 1883 c-12 -2 -25 -10 -30 -16 -12 -17 -46 -157 -40 -164 9 -9
57 45 57 64 0 34 29 63 63 63 65 0 98 -51 77 -116 -20 -60 -92 -101 -210 -119
-25 -4 -41 -14 -57 -38 -13 -18 -23 -36 -23 -40 0 -15 62 -6 88 12 15 11 45
22 67 26 107 18 195 107 195 197 0 43 -28 97 -60 113 -32 16 -94 25 -127 18z"/>
    <path d="M870 1440 c0 -12 7 -34 15 -50 35 -68 233 -131 473 -151 328 -28 695
47 761 155 41 66 40 66 -148 66 -104 0 -172 -4 -176 -10 -3 -6 -22 -18 -41
-28 -34 -18 -33 -18 127 -14 133 4 161 2 157 -9 -23 -68 -396 -129 -663 -109
-166 13 -275 34 -345 67 -30 14 -67 25 -81 24 -15 0 -32 6 -39 14 -19 23 -4
45 30 45 25 0 30 -3 26 -17 -5 -17 6 -18 149 -18 85 0 155 2 155 5 0 3 -18 15
-40 28 -36 20 -51 22 -199 22 -156 0 -161 -1 -161 -20z m1204 -26 c4 -10 1
-14 -6 -12 -15 5 -23 28 -10 28 5 0 13 -7 16 -16z"/>
    <path d="M210 925 c0 -24 3 -25 55 -25 l55 0 -2 -132 -1 -133 23 0 24 0 -3
132 -3 132 54 3 c46 3 53 6 56 26 3 22 3 22 -127 22 l-131 0 0 -25z"/>
    <path d="M567 943 c-4 -3 -7 -75 -7 -160 l0 -153 115 0 115 0 0 25 c0 25 -1
25 -90 25 l-90 0 0 45 0 44 78 3 c69 3 77 5 77 23 0 18 -8 20 -77 23 l-78 3 0
39 0 40 85 0 c84 0 85 0 85 25 l0 25 -103 0 c-57 0 -107 -3 -110 -7z"/>
    <path d="M907 944 c-4 -4 -7 -76 -7 -161 l0 -154 113 3 c107 3 112 4 115 25 3
21 0 22 -85 25 l-88 3 0 45 0 45 73 -3 c44 -2 72 0 72 6 0 6 3 17 6 26 5 14
-5 16 -75 16 l-81 0 0 40 0 40 91 0 c88 0 90 1 87 23 -3 21 -8 22 -109 25 -58
1 -108 -1 -112 -4z"/>
    <path d="M1260 790 l0 -160 25 0 c24 0 25 3 25 55 l0 55 56 0 c48 0 59 4 84
29 40 40 48 76 24 120 -23 44 -64 60 -151 60 l-63 1 0 -160z m160 90 c11 -11
20 -29 20 -39 0 -30 -47 -61 -91 -61 l-39 0 0 60 0 60 45 0 c32 0 51 -6 65
-20z"/>
    <path d="M1651 908 c-10 -24 -41 -94 -70 -156 -28 -63 -51 -116 -51 -118 0 -2
11 -4 26 -4 19 0 28 8 40 35 l14 35 80 0 80 0 14 -35 c10 -23 22 -35 35 -35
30 0 31 10 5 65 -55 120 -104 233 -104 244 0 6 -11 11 -25 11 -21 0 -29 -8
-44 -42z m86 -154 c-2 -3 -27 -4 -54 -2 l-49 3 29 65 29 65 25 -63 c14 -35 23
-65 20 -68z"/>
    <path d="M1940 789 l0 -160 23 3 c20 3 22 9 22 56 l0 52 38 0 c36 0 38 -2 62
-55 22 -50 27 -55 55 -55 l32 0 -27 48 c-15 26 -32 51 -37 57 -5 6 3 19 22 35
40 33 49 83 21 127 -23 37 -68 53 -153 53 l-58 0 0 -161z m160 91 c24 -24 25
-38 4 -68 -12 -18 -25 -22 -65 -22 l-49 0 0 55 0 55 45 0 c32 0 51 -6 65 -20z"/>
    <path d="M2248 944 c-3 -3 -4 -14 -1 -25 4 -15 14 -19 49 -19 l44 0 0 -136 0
-135 28 3 27 3 2 130 1 130 51 3 c47 3 51 5 51 28 l0 24 -123 0 c-68 0 -126
-3 -129 -6z"/>
    <path d="M2550 945 c0 -3 25 -45 55 -93 52 -84 55 -92 55 -155 0 -65 1 -67 25
-67 24 0 25 2 26 68 0 64 2 70 58 157 58 90 59 90 33 93 -29 4 -49 -17 -83
-90 -12 -27 -25 -48 -29 -48 -3 0 -23 32 -44 70 -33 62 -41 70 -67 70 -16 0
-29 -2 -29 -5z"/>
  </g>
</svg>
